<mxfile host="app.diagrams.net" modified="2024-07-15T19:09:36.382Z" agent="Mozilla/5.0 (Windows NT 10.0; Win64; x64) AppleWebKit/537.36 (KHTML, like Gecko) Chrome/126.0.0.0 Safari/537.36" etag="9O49HIQtKjxddEoZw4nO" version="24.6.5" type="device">
  <diagram name="Trang-1" id="Ka0mFkoTwdF9sZvkvno-">
    <mxGraphModel dx="1050" dy="522" grid="1" gridSize="10" guides="1" tooltips="1" connect="1" arrows="1" fold="1" page="1" pageScale="1" pageWidth="827" pageHeight="1169" math="0" shadow="0">
      <root>
        <mxCell id="0" />
        <mxCell id="1" parent="0" />
        <mxCell id="au2RlcgSKtpGHKUy9Nbu-69" value="MovieService" style="swimlane;whiteSpace=wrap;html=1;startSize=40;verticalAlign=bottom;" vertex="1" parent="1">
          <mxGeometry x="170" y="320" width="200" height="170" as="geometry" />
        </mxCell>
        <mxCell id="au2RlcgSKtpGHKUy9Nbu-70" value="" style="endArrow=none;html=1;rounded=0;exitX=0;exitY=1;exitDx=0;exitDy=0;exitPerimeter=0;entryX=1.017;entryY=1.067;entryDx=0;entryDy=0;entryPerimeter=0;" edge="1" parent="au2RlcgSKtpGHKUy9Nbu-69">
          <mxGeometry width="50" height="50" relative="1" as="geometry">
            <mxPoint x="-4" y="60" as="sourcePoint" />
            <mxPoint x="199.4000000000001" y="62.00999999999999" as="targetPoint" />
            <Array as="points" />
          </mxGeometry>
        </mxCell>
        <mxCell id="au2RlcgSKtpGHKUy9Nbu-71" value="+createMovie() : void" style="text;strokeColor=none;fillColor=none;align=left;verticalAlign=middle;spacingLeft=4;spacingRight=4;overflow=hidden;points=[[0,0.5],[1,0.5]];portConstraint=eastwest;rotatable=0;whiteSpace=wrap;html=1;" vertex="1" parent="au2RlcgSKtpGHKUy9Nbu-69">
          <mxGeometry y="100" width="200" height="30" as="geometry" />
        </mxCell>
        <mxCell id="au2RlcgSKtpGHKUy9Nbu-72" value="+getMovieById() : Movie" style="text;strokeColor=none;fillColor=none;align=left;verticalAlign=middle;spacingLeft=4;spacingRight=4;overflow=hidden;points=[[0,0.5],[1,0.5]];portConstraint=eastwest;rotatable=0;whiteSpace=wrap;html=1;" vertex="1" parent="au2RlcgSKtpGHKUy9Nbu-69">
          <mxGeometry y="80" width="200" height="30" as="geometry" />
        </mxCell>
        <mxCell id="au2RlcgSKtpGHKUy9Nbu-75" value="+updateMovie() : void" style="text;strokeColor=none;fillColor=none;align=left;verticalAlign=middle;spacingLeft=4;spacingRight=4;overflow=hidden;points=[[0,0.5],[1,0.5]];portConstraint=eastwest;rotatable=0;whiteSpace=wrap;html=1;" vertex="1" parent="au2RlcgSKtpGHKUy9Nbu-69">
          <mxGeometry y="120" width="200" height="30" as="geometry" />
        </mxCell>
        <mxCell id="au2RlcgSKtpGHKUy9Nbu-76" value="+deleteMovie() : void" style="text;strokeColor=none;fillColor=none;align=left;verticalAlign=middle;spacingLeft=4;spacingRight=4;overflow=hidden;points=[[0,0.5],[1,0.5]];portConstraint=eastwest;rotatable=0;whiteSpace=wrap;html=1;" vertex="1" parent="au2RlcgSKtpGHKUy9Nbu-69">
          <mxGeometry y="140" width="200" height="30" as="geometry" />
        </mxCell>
        <mxCell id="au2RlcgSKtpGHKUy9Nbu-77" value="&amp;lt;&amp;lt;interface&amp;gt;&amp;gt;" style="text;html=1;align=center;verticalAlign=middle;whiteSpace=wrap;rounded=0;" vertex="1" parent="au2RlcgSKtpGHKUy9Nbu-69">
          <mxGeometry x="70" width="60" height="30" as="geometry" />
        </mxCell>
        <mxCell id="au2RlcgSKtpGHKUy9Nbu-74" value="&lt;div style=&quot;text-align: center;&quot;&gt;&lt;span style=&quot;background-color: initial;&quot;&gt;+getAllMovie&lt;/span&gt;&lt;span style=&quot;background-color: initial;&quot;&gt;() : List&amp;lt;Movie&amp;gt;&lt;/span&gt;&lt;/div&gt;" style="text;strokeColor=none;fillColor=none;align=left;verticalAlign=middle;spacingLeft=4;spacingRight=4;overflow=hidden;points=[[0,0.5],[1,0.5]];portConstraint=eastwest;rotatable=0;whiteSpace=wrap;html=1;" vertex="1" parent="au2RlcgSKtpGHKUy9Nbu-69">
          <mxGeometry y="60" width="200" height="30" as="geometry" />
        </mxCell>
        <mxCell id="lbkJmBCR8xzpIKuYviyf-23" value="Moive" style="swimlane;whiteSpace=wrap;html=1;" parent="1" vertex="1">
          <mxGeometry x="430" y="355" width="200" height="370" as="geometry" />
        </mxCell>
        <mxCell id="lbkJmBCR8xzpIKuYviyf-15" value="id : int" style="text;strokeColor=none;fillColor=none;align=left;verticalAlign=middle;spacingLeft=4;spacingRight=4;overflow=hidden;points=[[0,0.5],[1,0.5]];portConstraint=eastwest;rotatable=0;whiteSpace=wrap;html=1;" parent="lbkJmBCR8xzpIKuYviyf-23" vertex="1">
          <mxGeometry y="30" width="200" height="30" as="geometry" />
        </mxCell>
        <mxCell id="lbkJmBCR8xzpIKuYviyf-24" value="&lt;span style=&quot;text-align: center;&quot;&gt;avatar&lt;/span&gt;:String" style="text;strokeColor=none;fillColor=none;align=left;verticalAlign=middle;spacingLeft=4;spacingRight=4;overflow=hidden;points=[[0,0.5],[1,0.5]];portConstraint=eastwest;rotatable=0;whiteSpace=wrap;html=1;" parent="lbkJmBCR8xzpIKuYviyf-23" vertex="1">
          <mxGeometry y="50" width="200" height="30" as="geometry" />
        </mxCell>
        <mxCell id="lbkJmBCR8xzpIKuYviyf-25" value="nameMovie:String" style="text;strokeColor=none;fillColor=none;align=left;verticalAlign=middle;spacingLeft=4;spacingRight=4;overflow=hidden;points=[[0,0.5],[1,0.5]];portConstraint=eastwest;rotatable=0;whiteSpace=wrap;html=1;" parent="lbkJmBCR8xzpIKuYviyf-23" vertex="1">
          <mxGeometry y="70" width="200" height="30" as="geometry" />
        </mxCell>
        <mxCell id="lbkJmBCR8xzpIKuYviyf-26" value="idType:int" style="text;strokeColor=none;fillColor=none;align=left;verticalAlign=middle;spacingLeft=4;spacingRight=4;overflow=hidden;points=[[0,0.5],[1,0.5]];portConstraint=eastwest;rotatable=0;whiteSpace=wrap;html=1;" parent="lbkJmBCR8xzpIKuYviyf-23" vertex="1">
          <mxGeometry y="90" width="200" height="30" as="geometry" />
        </mxCell>
        <mxCell id="lbkJmBCR8xzpIKuYviyf-27" value="&lt;span style=&quot;text-align: center;&quot;&gt;premiere&lt;/span&gt;:time" style="text;strokeColor=none;fillColor=none;align=left;verticalAlign=middle;spacingLeft=4;spacingRight=4;overflow=hidden;points=[[0,0.5],[1,0.5]];portConstraint=eastwest;rotatable=0;whiteSpace=wrap;html=1;" parent="lbkJmBCR8xzpIKuYviyf-23" vertex="1">
          <mxGeometry y="110" width="200" height="30" as="geometry" />
        </mxCell>
        <mxCell id="lbkJmBCR8xzpIKuYviyf-28" value="duration:String" style="text;strokeColor=none;fillColor=none;align=left;verticalAlign=middle;spacingLeft=4;spacingRight=4;overflow=hidden;points=[[0,0.5],[1,0.5]];portConstraint=eastwest;rotatable=0;whiteSpace=wrap;html=1;" parent="lbkJmBCR8xzpIKuYviyf-23" vertex="1">
          <mxGeometry y="130" width="200" height="30" as="geometry" />
        </mxCell>
        <mxCell id="lbkJmBCR8xzpIKuYviyf-32" value="&lt;span style=&quot;text-align: center;&quot;&gt;performer&lt;/span&gt;:String" style="text;strokeColor=none;fillColor=none;align=left;verticalAlign=middle;spacingLeft=4;spacingRight=4;overflow=hidden;points=[[0,0.5],[1,0.5]];portConstraint=eastwest;rotatable=0;whiteSpace=wrap;html=1;" parent="lbkJmBCR8xzpIKuYviyf-23" vertex="1">
          <mxGeometry y="150" width="200" height="30" as="geometry" />
        </mxCell>
        <mxCell id="lbkJmBCR8xzpIKuYviyf-33" value="director:String" style="text;strokeColor=none;fillColor=none;align=left;verticalAlign=middle;spacingLeft=4;spacingRight=4;overflow=hidden;points=[[0,0.5],[1,0.5]];portConstraint=eastwest;rotatable=0;whiteSpace=wrap;html=1;" parent="lbkJmBCR8xzpIKuYviyf-23" vertex="1">
          <mxGeometry y="170" width="200" height="30" as="geometry" />
        </mxCell>
        <mxCell id="lbkJmBCR8xzpIKuYviyf-35" value="" style="endArrow=none;html=1;rounded=0;exitX=0;exitY=1;exitDx=0;exitDy=0;exitPerimeter=0;entryX=1.017;entryY=1.067;entryDx=0;entryDy=0;entryPerimeter=0;" parent="lbkJmBCR8xzpIKuYviyf-23" edge="1">
          <mxGeometry width="50" height="50" relative="1" as="geometry">
            <mxPoint x="-1.7" y="280" as="sourcePoint" />
            <mxPoint x="201.70000000000007" y="282.01" as="targetPoint" />
            <Array as="points">
              <mxPoint x="98.3" y="280" />
            </Array>
          </mxGeometry>
        </mxCell>
        <mxCell id="lbkJmBCR8xzpIKuYviyf-38" value="+setter()" style="text;strokeColor=none;fillColor=none;align=left;verticalAlign=middle;spacingLeft=4;spacingRight=4;overflow=hidden;points=[[0,0.5],[1,0.5]];portConstraint=eastwest;rotatable=0;whiteSpace=wrap;html=1;" parent="lbkJmBCR8xzpIKuYviyf-23" vertex="1">
          <mxGeometry y="340" width="200" height="30" as="geometry" />
        </mxCell>
        <mxCell id="au2RlcgSKtpGHKUy9Nbu-2" value="content:String" style="text;strokeColor=none;fillColor=none;align=left;verticalAlign=middle;spacingLeft=4;spacingRight=4;overflow=hidden;points=[[0,0.5],[1,0.5]];portConstraint=eastwest;rotatable=0;whiteSpace=wrap;html=1;" vertex="1" parent="lbkJmBCR8xzpIKuYviyf-23">
          <mxGeometry y="190" width="200" height="30" as="geometry" />
        </mxCell>
        <mxCell id="au2RlcgSKtpGHKUy9Nbu-3" value="&lt;span style=&quot;text-align: center;&quot;&gt;trailer&lt;/span&gt;:String" style="text;strokeColor=none;fillColor=none;align=left;verticalAlign=middle;spacingLeft=4;spacingRight=4;overflow=hidden;points=[[0,0.5],[1,0.5]];portConstraint=eastwest;rotatable=0;whiteSpace=wrap;html=1;" vertex="1" parent="lbkJmBCR8xzpIKuYviyf-23">
          <mxGeometry y="230" width="200" height="30" as="geometry" />
        </mxCell>
        <mxCell id="au2RlcgSKtpGHKUy9Nbu-4" value="&lt;div style=&quot;text-align: center;&quot;&gt;&lt;span style=&quot;background-color: initial;&quot;&gt;idShowTime&lt;/span&gt;&lt;span style=&quot;background-color: initial;&quot;&gt;:int&lt;/span&gt;&lt;/div&gt;" style="text;strokeColor=none;fillColor=none;align=left;verticalAlign=middle;spacingLeft=4;spacingRight=4;overflow=hidden;points=[[0,0.5],[1,0.5]];portConstraint=eastwest;rotatable=0;whiteSpace=wrap;html=1;" vertex="1" parent="lbkJmBCR8xzpIKuYviyf-23">
          <mxGeometry y="210" width="200" height="30" as="geometry" />
        </mxCell>
        <mxCell id="lbkJmBCR8xzpIKuYviyf-36" value="+movie()" style="text;strokeColor=none;fillColor=none;align=left;verticalAlign=middle;spacingLeft=4;spacingRight=4;overflow=hidden;points=[[0,0.5],[1,0.5]];portConstraint=eastwest;rotatable=0;whiteSpace=wrap;html=1;" parent="lbkJmBCR8xzpIKuYviyf-23" vertex="1">
          <mxGeometry y="280" width="200" height="30" as="geometry" />
        </mxCell>
        <mxCell id="lbkJmBCR8xzpIKuYviyf-37" value="+getter()" style="text;strokeColor=none;fillColor=none;align=left;verticalAlign=middle;spacingLeft=4;spacingRight=4;overflow=hidden;points=[[0,0.5],[1,0.5]];portConstraint=eastwest;rotatable=0;whiteSpace=wrap;html=1;" parent="lbkJmBCR8xzpIKuYviyf-23" vertex="1">
          <mxGeometry y="310" width="200" height="30" as="geometry" />
        </mxCell>
        <mxCell id="au2RlcgSKtpGHKUy9Nbu-5" value="movieType" style="swimlane;whiteSpace=wrap;html=1;" vertex="1" parent="1">
          <mxGeometry x="740" y="585" width="200" height="170" as="geometry" />
        </mxCell>
        <mxCell id="au2RlcgSKtpGHKUy9Nbu-6" value="id : Int" style="text;strokeColor=none;fillColor=none;align=left;verticalAlign=middle;spacingLeft=4;spacingRight=4;overflow=hidden;points=[[0,0.5],[1,0.5]];portConstraint=eastwest;rotatable=0;whiteSpace=wrap;html=1;" vertex="1" parent="au2RlcgSKtpGHKUy9Nbu-5">
          <mxGeometry y="30" width="200" height="30" as="geometry" />
        </mxCell>
        <mxCell id="au2RlcgSKtpGHKUy9Nbu-8" value="name:String" style="text;strokeColor=none;fillColor=none;align=left;verticalAlign=middle;spacingLeft=4;spacingRight=4;overflow=hidden;points=[[0,0.5],[1,0.5]];portConstraint=eastwest;rotatable=0;whiteSpace=wrap;html=1;" vertex="1" parent="au2RlcgSKtpGHKUy9Nbu-5">
          <mxGeometry y="50" width="200" height="30" as="geometry" />
        </mxCell>
        <mxCell id="au2RlcgSKtpGHKUy9Nbu-15" value="" style="endArrow=none;html=1;rounded=0;exitX=0;exitY=1;exitDx=0;exitDy=0;exitPerimeter=0;entryX=1.017;entryY=1.067;entryDx=0;entryDy=0;entryPerimeter=0;" edge="1" parent="au2RlcgSKtpGHKUy9Nbu-5">
          <mxGeometry width="50" height="50" relative="1" as="geometry">
            <mxPoint x="-3.4" y="100" as="sourcePoint" />
            <mxPoint x="200.00000000000009" y="102.00999999999999" as="targetPoint" />
            <Array as="points">
              <mxPoint x="96.6" y="100" />
            </Array>
          </mxGeometry>
        </mxCell>
        <mxCell id="au2RlcgSKtpGHKUy9Nbu-16" value="+setter()" style="text;strokeColor=none;fillColor=none;align=left;verticalAlign=middle;spacingLeft=4;spacingRight=4;overflow=hidden;points=[[0,0.5],[1,0.5]];portConstraint=eastwest;rotatable=0;whiteSpace=wrap;html=1;" vertex="1" parent="au2RlcgSKtpGHKUy9Nbu-5">
          <mxGeometry y="140" width="200" height="30" as="geometry" />
        </mxCell>
        <mxCell id="au2RlcgSKtpGHKUy9Nbu-21" value="+getter()" style="text;strokeColor=none;fillColor=none;align=left;verticalAlign=middle;spacingLeft=4;spacingRight=4;overflow=hidden;points=[[0,0.5],[1,0.5]];portConstraint=eastwest;rotatable=0;whiteSpace=wrap;html=1;" vertex="1" parent="au2RlcgSKtpGHKUy9Nbu-5">
          <mxGeometry y="120" width="200" height="30" as="geometry" />
        </mxCell>
        <mxCell id="au2RlcgSKtpGHKUy9Nbu-22" value="idMovie:int" style="text;strokeColor=none;fillColor=none;align=left;verticalAlign=middle;spacingLeft=4;spacingRight=4;overflow=hidden;points=[[0,0.5],[1,0.5]];portConstraint=eastwest;rotatable=0;whiteSpace=wrap;html=1;" vertex="1" parent="au2RlcgSKtpGHKUy9Nbu-5">
          <mxGeometry y="70" width="200" height="30" as="geometry" />
        </mxCell>
        <mxCell id="au2RlcgSKtpGHKUy9Nbu-20" value="+&lt;span style=&quot;text-align: center;&quot;&gt;movieType&lt;/span&gt;()" style="text;strokeColor=none;fillColor=none;align=left;verticalAlign=middle;spacingLeft=4;spacingRight=4;overflow=hidden;points=[[0,0.5],[1,0.5]];portConstraint=eastwest;rotatable=0;whiteSpace=wrap;html=1;" vertex="1" parent="au2RlcgSKtpGHKUy9Nbu-5">
          <mxGeometry y="100" width="200" height="30" as="geometry" />
        </mxCell>
        <mxCell id="au2RlcgSKtpGHKUy9Nbu-23" value="ShowTime" style="swimlane;whiteSpace=wrap;html=1;startSize=23;" vertex="1" parent="1">
          <mxGeometry x="740" y="310" width="200" height="220" as="geometry" />
        </mxCell>
        <mxCell id="au2RlcgSKtpGHKUy9Nbu-24" value="id : int" style="text;strokeColor=none;fillColor=none;align=left;verticalAlign=middle;spacingLeft=4;spacingRight=4;overflow=hidden;points=[[0,0.5],[1,0.5]];portConstraint=eastwest;rotatable=0;whiteSpace=wrap;html=1;" vertex="1" parent="au2RlcgSKtpGHKUy9Nbu-23">
          <mxGeometry y="30" width="200" height="30" as="geometry" />
        </mxCell>
        <mxCell id="au2RlcgSKtpGHKUy9Nbu-25" value="&lt;div style=&quot;text-align: center;&quot;&gt;&lt;span style=&quot;background-color: initial;&quot;&gt;showDate:date&lt;/span&gt;&lt;/div&gt;" style="text;strokeColor=none;fillColor=none;align=left;verticalAlign=middle;spacingLeft=4;spacingRight=4;overflow=hidden;points=[[0,0.5],[1,0.5]];portConstraint=eastwest;rotatable=0;whiteSpace=wrap;html=1;" vertex="1" parent="au2RlcgSKtpGHKUy9Nbu-23">
          <mxGeometry y="50" width="200" height="30" as="geometry" />
        </mxCell>
        <mxCell id="au2RlcgSKtpGHKUy9Nbu-26" value="showTime:dateTime" style="text;strokeColor=none;fillColor=none;align=left;verticalAlign=middle;spacingLeft=4;spacingRight=4;overflow=hidden;points=[[0,0.5],[1,0.5]];portConstraint=eastwest;rotatable=0;whiteSpace=wrap;html=1;" vertex="1" parent="au2RlcgSKtpGHKUy9Nbu-23">
          <mxGeometry y="70" width="200" height="30" as="geometry" />
        </mxCell>
        <mxCell id="au2RlcgSKtpGHKUy9Nbu-27" value="idMovie:int" style="text;strokeColor=none;fillColor=none;align=left;verticalAlign=middle;spacingLeft=4;spacingRight=4;overflow=hidden;points=[[0,0.5],[1,0.5]];portConstraint=eastwest;rotatable=0;whiteSpace=wrap;html=1;" vertex="1" parent="au2RlcgSKtpGHKUy9Nbu-23">
          <mxGeometry y="90" width="200" height="30" as="geometry" />
        </mxCell>
        <mxCell id="au2RlcgSKtpGHKUy9Nbu-28" value="&lt;span style=&quot;text-align: center;&quot;&gt;idRoom&lt;/span&gt;:time" style="text;strokeColor=none;fillColor=none;align=left;verticalAlign=middle;spacingLeft=4;spacingRight=4;overflow=hidden;points=[[0,0.5],[1,0.5]];portConstraint=eastwest;rotatable=0;whiteSpace=wrap;html=1;" vertex="1" parent="au2RlcgSKtpGHKUy9Nbu-23">
          <mxGeometry y="110" width="200" height="30" as="geometry" />
        </mxCell>
        <mxCell id="au2RlcgSKtpGHKUy9Nbu-33" value="" style="endArrow=none;html=1;rounded=0;exitX=0;exitY=1;exitDx=0;exitDy=0;exitPerimeter=0;entryX=1.017;entryY=1.067;entryDx=0;entryDy=0;entryPerimeter=0;" edge="1" parent="au2RlcgSKtpGHKUy9Nbu-23">
          <mxGeometry width="50" height="50" relative="1" as="geometry">
            <mxPoint x="-3.4" y="140" as="sourcePoint" />
            <mxPoint x="200.00000000000009" y="142.01" as="targetPoint" />
            <Array as="points">
              <mxPoint x="96.6" y="140" />
            </Array>
          </mxGeometry>
        </mxCell>
        <mxCell id="au2RlcgSKtpGHKUy9Nbu-34" value="+setter()" style="text;strokeColor=none;fillColor=none;align=left;verticalAlign=middle;spacingLeft=4;spacingRight=4;overflow=hidden;points=[[0,0.5],[1,0.5]];portConstraint=eastwest;rotatable=0;whiteSpace=wrap;html=1;" vertex="1" parent="au2RlcgSKtpGHKUy9Nbu-23">
          <mxGeometry y="180" width="200" height="30" as="geometry" />
        </mxCell>
        <mxCell id="au2RlcgSKtpGHKUy9Nbu-39" value="+getter()" style="text;strokeColor=none;fillColor=none;align=left;verticalAlign=middle;spacingLeft=4;spacingRight=4;overflow=hidden;points=[[0,0.5],[1,0.5]];portConstraint=eastwest;rotatable=0;whiteSpace=wrap;html=1;" vertex="1" parent="au2RlcgSKtpGHKUy9Nbu-23">
          <mxGeometry y="160" width="200" height="30" as="geometry" />
        </mxCell>
        <mxCell id="au2RlcgSKtpGHKUy9Nbu-38" value="+&lt;span style=&quot;text-align: center;&quot;&gt;ShowTime&lt;/span&gt;()" style="text;strokeColor=none;fillColor=none;align=left;verticalAlign=middle;spacingLeft=4;spacingRight=4;overflow=hidden;points=[[0,0.5],[1,0.5]];portConstraint=eastwest;rotatable=0;whiteSpace=wrap;html=1;" vertex="1" parent="au2RlcgSKtpGHKUy9Nbu-23">
          <mxGeometry y="140" width="200" height="30" as="geometry" />
        </mxCell>
        <mxCell id="au2RlcgSKtpGHKUy9Nbu-40" value="Room" style="swimlane;whiteSpace=wrap;html=1;startSize=23;" vertex="1" parent="1">
          <mxGeometry x="1060" y="440" width="200" height="252.5" as="geometry" />
        </mxCell>
        <mxCell id="au2RlcgSKtpGHKUy9Nbu-41" value="id : int" style="text;strokeColor=none;fillColor=none;align=left;verticalAlign=middle;spacingLeft=4;spacingRight=4;overflow=hidden;points=[[0,0.5],[1,0.5]];portConstraint=eastwest;rotatable=0;whiteSpace=wrap;html=1;" vertex="1" parent="au2RlcgSKtpGHKUy9Nbu-40">
          <mxGeometry y="30" width="200" height="30" as="geometry" />
        </mxCell>
        <mxCell id="au2RlcgSKtpGHKUy9Nbu-42" value="&lt;div style=&quot;text-align: center;&quot;&gt;&lt;span style=&quot;background-color: initial;&quot;&gt;name:String&lt;/span&gt;&lt;/div&gt;" style="text;strokeColor=none;fillColor=none;align=left;verticalAlign=middle;spacingLeft=4;spacingRight=4;overflow=hidden;points=[[0,0.5],[1,0.5]];portConstraint=eastwest;rotatable=0;whiteSpace=wrap;html=1;" vertex="1" parent="au2RlcgSKtpGHKUy9Nbu-40">
          <mxGeometry y="50" width="200" height="30" as="geometry" />
        </mxCell>
        <mxCell id="au2RlcgSKtpGHKUy9Nbu-43" value="qualitySeat:int" style="text;strokeColor=none;fillColor=none;align=left;verticalAlign=middle;spacingLeft=4;spacingRight=4;overflow=hidden;points=[[0,0.5],[1,0.5]];portConstraint=eastwest;rotatable=0;whiteSpace=wrap;html=1;" vertex="1" parent="au2RlcgSKtpGHKUy9Nbu-40">
          <mxGeometry y="70" width="200" height="30" as="geometry" />
        </mxCell>
        <mxCell id="au2RlcgSKtpGHKUy9Nbu-44" value="Status:String" style="text;strokeColor=none;fillColor=none;align=left;verticalAlign=middle;spacingLeft=4;spacingRight=4;overflow=hidden;points=[[0,0.5],[1,0.5]];portConstraint=eastwest;rotatable=0;whiteSpace=wrap;html=1;" vertex="1" parent="au2RlcgSKtpGHKUy9Nbu-40">
          <mxGeometry y="90" width="200" height="30" as="geometry" />
        </mxCell>
        <mxCell id="au2RlcgSKtpGHKUy9Nbu-45" value="&lt;div style=&quot;text-align: center;&quot;&gt;&lt;span style=&quot;background-color: initial;&quot;&gt;description&lt;/span&gt;&lt;span style=&quot;background-color: initial;&quot;&gt;:String&lt;/span&gt;&lt;/div&gt;" style="text;strokeColor=none;fillColor=none;align=left;verticalAlign=middle;spacingLeft=4;spacingRight=4;overflow=hidden;points=[[0,0.5],[1,0.5]];portConstraint=eastwest;rotatable=0;whiteSpace=wrap;html=1;" vertex="1" parent="au2RlcgSKtpGHKUy9Nbu-40">
          <mxGeometry y="110" width="200" height="30" as="geometry" />
        </mxCell>
        <mxCell id="au2RlcgSKtpGHKUy9Nbu-46" value="" style="endArrow=none;html=1;rounded=0;exitX=0;exitY=1;exitDx=0;exitDy=0;exitPerimeter=0;entryX=1.017;entryY=1.067;entryDx=0;entryDy=0;entryPerimeter=0;" edge="1" parent="au2RlcgSKtpGHKUy9Nbu-40">
          <mxGeometry width="50" height="50" relative="1" as="geometry">
            <mxPoint x="-3.4" y="165" as="sourcePoint" />
            <mxPoint x="200.00000000000009" y="167.01" as="targetPoint" />
            <Array as="points">
              <mxPoint x="96.6" y="165" />
            </Array>
          </mxGeometry>
        </mxCell>
        <mxCell id="au2RlcgSKtpGHKUy9Nbu-47" value="+setter()" style="text;strokeColor=none;fillColor=none;align=left;verticalAlign=middle;spacingLeft=4;spacingRight=4;overflow=hidden;points=[[0,0.5],[1,0.5]];portConstraint=eastwest;rotatable=0;whiteSpace=wrap;html=1;" vertex="1" parent="au2RlcgSKtpGHKUy9Nbu-40">
          <mxGeometry y="225" width="200" height="30" as="geometry" />
        </mxCell>
        <mxCell id="au2RlcgSKtpGHKUy9Nbu-48" value="+getter()" style="text;strokeColor=none;fillColor=none;align=left;verticalAlign=middle;spacingLeft=4;spacingRight=4;overflow=hidden;points=[[0,0.5],[1,0.5]];portConstraint=eastwest;rotatable=0;whiteSpace=wrap;html=1;" vertex="1" parent="au2RlcgSKtpGHKUy9Nbu-40">
          <mxGeometry y="195" width="200" height="30" as="geometry" />
        </mxCell>
        <mxCell id="au2RlcgSKtpGHKUy9Nbu-50" value="&lt;div style=&quot;text-align: center;&quot;&gt;&lt;span style=&quot;background-color: initial;&quot;&gt;idShowTime&lt;/span&gt;&lt;span style=&quot;background-color: initial;&quot;&gt;:int&lt;/span&gt;&lt;/div&gt;" style="text;strokeColor=none;fillColor=none;align=left;verticalAlign=middle;spacingLeft=4;spacingRight=4;overflow=hidden;points=[[0,0.5],[1,0.5]];portConstraint=eastwest;rotatable=0;whiteSpace=wrap;html=1;" vertex="1" parent="au2RlcgSKtpGHKUy9Nbu-40">
          <mxGeometry y="135" width="200" height="30" as="geometry" />
        </mxCell>
        <mxCell id="au2RlcgSKtpGHKUy9Nbu-49" value="+&lt;span style=&quot;text-align: center;&quot;&gt;Room&lt;/span&gt;()" style="text;strokeColor=none;fillColor=none;align=left;verticalAlign=middle;spacingLeft=4;spacingRight=4;overflow=hidden;points=[[0,0.5],[1,0.5]];portConstraint=eastwest;rotatable=0;whiteSpace=wrap;html=1;" vertex="1" parent="au2RlcgSKtpGHKUy9Nbu-40">
          <mxGeometry y="165" width="200" height="30" as="geometry" />
        </mxCell>
        <mxCell id="au2RlcgSKtpGHKUy9Nbu-56" value="MovieController" style="swimlane;whiteSpace=wrap;html=1;startSize=23;" vertex="1" parent="1">
          <mxGeometry x="170" y="70" width="200" height="180" as="geometry" />
        </mxCell>
        <mxCell id="au2RlcgSKtpGHKUy9Nbu-62" value="" style="endArrow=none;html=1;rounded=0;exitX=0;exitY=1;exitDx=0;exitDy=0;exitPerimeter=0;entryX=1.017;entryY=1.067;entryDx=0;entryDy=0;entryPerimeter=0;" edge="1" parent="au2RlcgSKtpGHKUy9Nbu-56">
          <mxGeometry width="50" height="50" relative="1" as="geometry">
            <mxPoint x="-3.4" y="57.99" as="sourcePoint" />
            <mxPoint x="200.00000000000009" y="59.99999999999999" as="targetPoint" />
            <Array as="points">
              <mxPoint x="96.6" y="57.99" />
            </Array>
          </mxGeometry>
        </mxCell>
        <mxCell id="au2RlcgSKtpGHKUy9Nbu-63" value="+createMovie() : void" style="text;strokeColor=none;fillColor=none;align=left;verticalAlign=middle;spacingLeft=4;spacingRight=4;overflow=hidden;points=[[0,0.5],[1,0.5]];portConstraint=eastwest;rotatable=0;whiteSpace=wrap;html=1;" vertex="1" parent="au2RlcgSKtpGHKUy9Nbu-56">
          <mxGeometry y="110" width="200" height="30" as="geometry" />
        </mxCell>
        <mxCell id="au2RlcgSKtpGHKUy9Nbu-64" value="+getMovieById() : Movie" style="text;strokeColor=none;fillColor=none;align=left;verticalAlign=middle;spacingLeft=4;spacingRight=4;overflow=hidden;points=[[0,0.5],[1,0.5]];portConstraint=eastwest;rotatable=0;whiteSpace=wrap;html=1;" vertex="1" parent="au2RlcgSKtpGHKUy9Nbu-56">
          <mxGeometry y="85" width="200" height="30" as="geometry" />
        </mxCell>
        <mxCell id="au2RlcgSKtpGHKUy9Nbu-66" value="&lt;div style=&quot;text-align: center;&quot;&gt;&lt;span style=&quot;background-color: initial;&quot;&gt;-movieService::movieService&lt;/span&gt;&lt;/div&gt;" style="text;strokeColor=none;fillColor=none;align=left;verticalAlign=middle;spacingLeft=4;spacingRight=4;overflow=hidden;points=[[0,0.5],[1,0.5]];portConstraint=eastwest;rotatable=0;whiteSpace=wrap;html=1;" vertex="1" parent="au2RlcgSKtpGHKUy9Nbu-56">
          <mxGeometry y="30" width="200" height="30" as="geometry" />
        </mxCell>
        <mxCell id="au2RlcgSKtpGHKUy9Nbu-67" value="+updateMovie() : void" style="text;strokeColor=none;fillColor=none;align=left;verticalAlign=middle;spacingLeft=4;spacingRight=4;overflow=hidden;points=[[0,0.5],[1,0.5]];portConstraint=eastwest;rotatable=0;whiteSpace=wrap;html=1;" vertex="1" parent="au2RlcgSKtpGHKUy9Nbu-56">
          <mxGeometry y="130" width="200" height="30" as="geometry" />
        </mxCell>
        <mxCell id="au2RlcgSKtpGHKUy9Nbu-68" value="+deleteMovie() : void" style="text;strokeColor=none;fillColor=none;align=left;verticalAlign=middle;spacingLeft=4;spacingRight=4;overflow=hidden;points=[[0,0.5],[1,0.5]];portConstraint=eastwest;rotatable=0;whiteSpace=wrap;html=1;" vertex="1" parent="au2RlcgSKtpGHKUy9Nbu-56">
          <mxGeometry y="150" width="200" height="30" as="geometry" />
        </mxCell>
        <mxCell id="au2RlcgSKtpGHKUy9Nbu-65" value="&lt;div style=&quot;text-align: center;&quot;&gt;&lt;span style=&quot;background-color: initial;&quot;&gt;+getAllMovie&lt;/span&gt;&lt;span style=&quot;background-color: initial;&quot;&gt;() : List&amp;lt;Movie&amp;gt;&lt;/span&gt;&lt;/div&gt;" style="text;strokeColor=none;fillColor=none;align=left;verticalAlign=middle;spacingLeft=4;spacingRight=4;overflow=hidden;points=[[0,0.5],[1,0.5]];portConstraint=eastwest;rotatable=0;whiteSpace=wrap;html=1;" vertex="1" parent="au2RlcgSKtpGHKUy9Nbu-56">
          <mxGeometry y="60" width="200" height="30" as="geometry" />
        </mxCell>
        <mxCell id="au2RlcgSKtpGHKUy9Nbu-84" value="MovieService" style="swimlane;whiteSpace=wrap;html=1;startSize=23;" vertex="1" parent="1">
          <mxGeometry x="170" y="530" width="200" height="180" as="geometry" />
        </mxCell>
        <mxCell id="au2RlcgSKtpGHKUy9Nbu-85" value="" style="endArrow=none;html=1;rounded=0;exitX=0;exitY=1;exitDx=0;exitDy=0;exitPerimeter=0;entryX=1.017;entryY=1.067;entryDx=0;entryDy=0;entryPerimeter=0;" edge="1" parent="au2RlcgSKtpGHKUy9Nbu-84">
          <mxGeometry width="50" height="50" relative="1" as="geometry">
            <mxPoint x="-3.4" y="57.99" as="sourcePoint" />
            <mxPoint x="200.00000000000009" y="59.99999999999999" as="targetPoint" />
            <Array as="points">
              <mxPoint x="96.6" y="57.99" />
            </Array>
          </mxGeometry>
        </mxCell>
        <mxCell id="au2RlcgSKtpGHKUy9Nbu-86" value="+createMovie() : void" style="text;strokeColor=none;fillColor=none;align=left;verticalAlign=middle;spacingLeft=4;spacingRight=4;overflow=hidden;points=[[0,0.5],[1,0.5]];portConstraint=eastwest;rotatable=0;whiteSpace=wrap;html=1;" vertex="1" parent="au2RlcgSKtpGHKUy9Nbu-84">
          <mxGeometry y="110" width="200" height="30" as="geometry" />
        </mxCell>
        <mxCell id="au2RlcgSKtpGHKUy9Nbu-87" value="+getMovieById() : Movie" style="text;strokeColor=none;fillColor=none;align=left;verticalAlign=middle;spacingLeft=4;spacingRight=4;overflow=hidden;points=[[0,0.5],[1,0.5]];portConstraint=eastwest;rotatable=0;whiteSpace=wrap;html=1;" vertex="1" parent="au2RlcgSKtpGHKUy9Nbu-84">
          <mxGeometry y="85" width="200" height="30" as="geometry" />
        </mxCell>
        <mxCell id="au2RlcgSKtpGHKUy9Nbu-88" value="&lt;div style=&quot;text-align: center;&quot;&gt;&lt;span style=&quot;background-color: initial;&quot;&gt;-movieRepository::&lt;/span&gt;&lt;span style=&quot;background-color: initial;&quot;&gt;movieRepository&lt;/span&gt;&lt;/div&gt;" style="text;strokeColor=none;fillColor=none;align=left;verticalAlign=middle;spacingLeft=4;spacingRight=4;overflow=hidden;points=[[0,0.5],[1,0.5]];portConstraint=eastwest;rotatable=0;whiteSpace=wrap;html=1;" vertex="1" parent="au2RlcgSKtpGHKUy9Nbu-84">
          <mxGeometry y="30" width="200" height="30" as="geometry" />
        </mxCell>
        <mxCell id="au2RlcgSKtpGHKUy9Nbu-89" value="+updateMovie() : void" style="text;strokeColor=none;fillColor=none;align=left;verticalAlign=middle;spacingLeft=4;spacingRight=4;overflow=hidden;points=[[0,0.5],[1,0.5]];portConstraint=eastwest;rotatable=0;whiteSpace=wrap;html=1;" vertex="1" parent="au2RlcgSKtpGHKUy9Nbu-84">
          <mxGeometry y="130" width="200" height="30" as="geometry" />
        </mxCell>
        <mxCell id="au2RlcgSKtpGHKUy9Nbu-90" value="+deleteMovie() : void" style="text;strokeColor=none;fillColor=none;align=left;verticalAlign=middle;spacingLeft=4;spacingRight=4;overflow=hidden;points=[[0,0.5],[1,0.5]];portConstraint=eastwest;rotatable=0;whiteSpace=wrap;html=1;" vertex="1" parent="au2RlcgSKtpGHKUy9Nbu-84">
          <mxGeometry y="150" width="200" height="30" as="geometry" />
        </mxCell>
        <mxCell id="au2RlcgSKtpGHKUy9Nbu-91" value="&lt;div style=&quot;text-align: center;&quot;&gt;&lt;span style=&quot;background-color: initial;&quot;&gt;+getAllMovie&lt;/span&gt;&lt;span style=&quot;background-color: initial;&quot;&gt;() : List&amp;lt;Movie&amp;gt;&lt;/span&gt;&lt;/div&gt;" style="text;strokeColor=none;fillColor=none;align=left;verticalAlign=middle;spacingLeft=4;spacingRight=4;overflow=hidden;points=[[0,0.5],[1,0.5]];portConstraint=eastwest;rotatable=0;whiteSpace=wrap;html=1;" vertex="1" parent="au2RlcgSKtpGHKUy9Nbu-84">
          <mxGeometry y="60" width="200" height="30" as="geometry" />
        </mxCell>
        <mxCell id="au2RlcgSKtpGHKUy9Nbu-98" value="MovieRepository" style="swimlane;whiteSpace=wrap;html=1;startSize=40;verticalAlign=bottom;" vertex="1" parent="1">
          <mxGeometry x="160" y="750" width="200" height="90" as="geometry" />
        </mxCell>
        <mxCell id="au2RlcgSKtpGHKUy9Nbu-99" value="" style="endArrow=none;html=1;rounded=0;exitX=0;exitY=1;exitDx=0;exitDy=0;exitPerimeter=0;entryX=1.017;entryY=1.067;entryDx=0;entryDy=0;entryPerimeter=0;" edge="1" parent="au2RlcgSKtpGHKUy9Nbu-98">
          <mxGeometry width="50" height="50" relative="1" as="geometry">
            <mxPoint x="-4" y="60" as="sourcePoint" />
            <mxPoint x="199.4000000000001" y="62.00999999999999" as="targetPoint" />
            <Array as="points" />
          </mxGeometry>
        </mxCell>
        <mxCell id="au2RlcgSKtpGHKUy9Nbu-104" value="&amp;lt;&amp;lt;interface&amp;gt;&amp;gt;" style="text;html=1;align=center;verticalAlign=middle;whiteSpace=wrap;rounded=0;" vertex="1" parent="au2RlcgSKtpGHKUy9Nbu-98">
          <mxGeometry x="70" width="60" height="30" as="geometry" />
        </mxCell>
        <mxCell id="au2RlcgSKtpGHKUy9Nbu-112" value="ShowTimeController" style="swimlane;whiteSpace=wrap;html=1;startSize=23;" vertex="1" parent="1">
          <mxGeometry x="450" y="70" width="240" height="150" as="geometry" />
        </mxCell>
        <mxCell id="au2RlcgSKtpGHKUy9Nbu-113" value="" style="endArrow=none;html=1;rounded=0;exitX=0;exitY=1;exitDx=0;exitDy=0;exitPerimeter=0;" edge="1" parent="au2RlcgSKtpGHKUy9Nbu-112">
          <mxGeometry width="50" height="50" relative="1" as="geometry">
            <mxPoint x="-3.4" y="57.99" as="sourcePoint" />
            <mxPoint x="241" y="60" as="targetPoint" />
            <Array as="points">
              <mxPoint x="96.6" y="57.99" />
            </Array>
          </mxGeometry>
        </mxCell>
        <mxCell id="au2RlcgSKtpGHKUy9Nbu-114" value="+createShowTime() : void" style="text;strokeColor=none;fillColor=none;align=left;verticalAlign=middle;spacingLeft=4;spacingRight=4;overflow=hidden;points=[[0,0.5],[1,0.5]];portConstraint=eastwest;rotatable=0;whiteSpace=wrap;html=1;" vertex="1" parent="au2RlcgSKtpGHKUy9Nbu-112">
          <mxGeometry y="110" width="200" height="30" as="geometry" />
        </mxCell>
        <mxCell id="au2RlcgSKtpGHKUy9Nbu-115" value="+getShowTimeById() : ShowTime" style="text;strokeColor=none;fillColor=none;align=left;verticalAlign=middle;spacingLeft=4;spacingRight=4;overflow=hidden;points=[[0,0.5],[1,0.5]];portConstraint=eastwest;rotatable=0;whiteSpace=wrap;html=1;" vertex="1" parent="au2RlcgSKtpGHKUy9Nbu-112">
          <mxGeometry y="85" width="200" height="30" as="geometry" />
        </mxCell>
        <mxCell id="au2RlcgSKtpGHKUy9Nbu-116" value="&lt;div style=&quot;text-align: center;&quot;&gt;&lt;span style=&quot;background-color: initial;&quot;&gt;- showTimeService::showTimeService&lt;/span&gt;&lt;/div&gt;" style="text;strokeColor=none;fillColor=none;align=left;verticalAlign=middle;spacingLeft=4;spacingRight=4;overflow=hidden;points=[[0,0.5],[1,0.5]];portConstraint=eastwest;rotatable=0;whiteSpace=wrap;html=1;" vertex="1" parent="au2RlcgSKtpGHKUy9Nbu-112">
          <mxGeometry y="20" width="230" height="30" as="geometry" />
        </mxCell>
        <mxCell id="au2RlcgSKtpGHKUy9Nbu-119" value="&lt;div style=&quot;text-align: center;&quot;&gt;&lt;span style=&quot;background-color: initial;&quot;&gt;+getAllShowTime&lt;/span&gt;&lt;span style=&quot;background-color: initial;&quot;&gt;() : List&amp;lt;ShowTime&amp;gt;&lt;/span&gt;&lt;/div&gt;" style="text;strokeColor=none;fillColor=none;align=left;verticalAlign=middle;spacingLeft=4;spacingRight=4;overflow=hidden;points=[[0,0.5],[1,0.5]];portConstraint=eastwest;rotatable=0;whiteSpace=wrap;html=1;" vertex="1" parent="au2RlcgSKtpGHKUy9Nbu-112">
          <mxGeometry y="60" width="220" height="30" as="geometry" />
        </mxCell>
        <mxCell id="au2RlcgSKtpGHKUy9Nbu-121" value="ShowTimeService" style="swimlane;whiteSpace=wrap;html=1;startSize=40;verticalAlign=bottom;" vertex="1" parent="1">
          <mxGeometry x="770" y="50" width="240" height="170" as="geometry" />
        </mxCell>
        <mxCell id="au2RlcgSKtpGHKUy9Nbu-122" value="" style="endArrow=none;html=1;rounded=0;exitX=0;exitY=1;exitDx=0;exitDy=0;exitPerimeter=0;" edge="1" parent="au2RlcgSKtpGHKUy9Nbu-121">
          <mxGeometry width="50" height="50" relative="1" as="geometry">
            <mxPoint x="-2.2" y="70" as="sourcePoint" />
            <mxPoint x="242.2" y="72.01" as="targetPoint" />
            <Array as="points">
              <mxPoint x="97.8" y="70" />
            </Array>
          </mxGeometry>
        </mxCell>
        <mxCell id="au2RlcgSKtpGHKUy9Nbu-123" value="+createShowTime() : void" style="text;strokeColor=none;fillColor=none;align=left;verticalAlign=middle;spacingLeft=4;spacingRight=4;overflow=hidden;points=[[0,0.5],[1,0.5]];portConstraint=eastwest;rotatable=0;whiteSpace=wrap;html=1;" vertex="1" parent="au2RlcgSKtpGHKUy9Nbu-121">
          <mxGeometry y="140" width="200" height="30" as="geometry" />
        </mxCell>
        <mxCell id="au2RlcgSKtpGHKUy9Nbu-124" value="+getShowTimeById() : ShowTime" style="text;strokeColor=none;fillColor=none;align=left;verticalAlign=middle;spacingLeft=4;spacingRight=4;overflow=hidden;points=[[0,0.5],[1,0.5]];portConstraint=eastwest;rotatable=0;whiteSpace=wrap;html=1;" vertex="1" parent="au2RlcgSKtpGHKUy9Nbu-121">
          <mxGeometry y="110" width="200" height="30" as="geometry" />
        </mxCell>
        <mxCell id="au2RlcgSKtpGHKUy9Nbu-126" value="&lt;div style=&quot;text-align: center;&quot;&gt;&lt;span style=&quot;background-color: initial;&quot;&gt;+getAllShowTime&lt;/span&gt;&lt;span style=&quot;background-color: initial;&quot;&gt;() : List&amp;lt;ShowTime&amp;gt;&lt;/span&gt;&lt;/div&gt;" style="text;strokeColor=none;fillColor=none;align=left;verticalAlign=middle;spacingLeft=4;spacingRight=4;overflow=hidden;points=[[0,0.5],[1,0.5]];portConstraint=eastwest;rotatable=0;whiteSpace=wrap;html=1;" vertex="1" parent="au2RlcgSKtpGHKUy9Nbu-121">
          <mxGeometry y="80" width="220" height="30" as="geometry" />
        </mxCell>
        <mxCell id="au2RlcgSKtpGHKUy9Nbu-133" value="&amp;lt;&amp;lt;interface&amp;gt;&amp;gt;" style="text;html=1;align=center;verticalAlign=middle;whiteSpace=wrap;rounded=0;" vertex="1" parent="au2RlcgSKtpGHKUy9Nbu-121">
          <mxGeometry x="90" width="60" height="30" as="geometry" />
        </mxCell>
        <mxCell id="au2RlcgSKtpGHKUy9Nbu-127" value="ShowTimeService" style="swimlane;whiteSpace=wrap;html=1;startSize=23;" vertex="1" parent="1">
          <mxGeometry x="1070" y="40" width="260" height="150" as="geometry" />
        </mxCell>
        <mxCell id="au2RlcgSKtpGHKUy9Nbu-128" value="" style="endArrow=none;html=1;rounded=0;exitX=0;exitY=1;exitDx=0;exitDy=0;exitPerimeter=0;" edge="1" parent="au2RlcgSKtpGHKUy9Nbu-127" source="au2RlcgSKtpGHKUy9Nbu-131">
          <mxGeometry width="50" height="50" relative="1" as="geometry">
            <mxPoint x="-3.4" y="57.99" as="sourcePoint" />
            <mxPoint x="260" y="58" as="targetPoint" />
            <Array as="points">
              <mxPoint x="96.6" y="57.99" />
            </Array>
          </mxGeometry>
        </mxCell>
        <mxCell id="au2RlcgSKtpGHKUy9Nbu-129" value="+createShowTime() : void" style="text;strokeColor=none;fillColor=none;align=left;verticalAlign=middle;spacingLeft=4;spacingRight=4;overflow=hidden;points=[[0,0.5],[1,0.5]];portConstraint=eastwest;rotatable=0;whiteSpace=wrap;html=1;" vertex="1" parent="au2RlcgSKtpGHKUy9Nbu-127">
          <mxGeometry y="110" width="200" height="30" as="geometry" />
        </mxCell>
        <mxCell id="au2RlcgSKtpGHKUy9Nbu-130" value="+getShowTimeById() : ShowTime" style="text;strokeColor=none;fillColor=none;align=left;verticalAlign=middle;spacingLeft=4;spacingRight=4;overflow=hidden;points=[[0,0.5],[1,0.5]];portConstraint=eastwest;rotatable=0;whiteSpace=wrap;html=1;" vertex="1" parent="au2RlcgSKtpGHKUy9Nbu-127">
          <mxGeometry y="85" width="200" height="30" as="geometry" />
        </mxCell>
        <mxCell id="au2RlcgSKtpGHKUy9Nbu-131" value="&lt;div style=&quot;text-align: center;&quot;&gt;&lt;span style=&quot;background-color: initial;&quot;&gt;- showTimeRepository::showTimeRepository&lt;/span&gt;&lt;/div&gt;" style="text;strokeColor=none;fillColor=none;align=left;verticalAlign=middle;spacingLeft=4;spacingRight=4;overflow=hidden;points=[[0,0.5],[1,0.5]];portConstraint=eastwest;rotatable=0;whiteSpace=wrap;html=1;" vertex="1" parent="au2RlcgSKtpGHKUy9Nbu-127">
          <mxGeometry y="30" width="260" height="30" as="geometry" />
        </mxCell>
        <mxCell id="au2RlcgSKtpGHKUy9Nbu-132" value="&lt;div style=&quot;text-align: center;&quot;&gt;&lt;span style=&quot;background-color: initial;&quot;&gt;+getAllShowTime&lt;/span&gt;&lt;span style=&quot;background-color: initial;&quot;&gt;() : List&amp;lt;ShowTime&amp;gt;&lt;/span&gt;&lt;/div&gt;" style="text;strokeColor=none;fillColor=none;align=left;verticalAlign=middle;spacingLeft=4;spacingRight=4;overflow=hidden;points=[[0,0.5],[1,0.5]];portConstraint=eastwest;rotatable=0;whiteSpace=wrap;html=1;" vertex="1" parent="au2RlcgSKtpGHKUy9Nbu-127">
          <mxGeometry y="60" width="220" height="30" as="geometry" />
        </mxCell>
        <mxCell id="au2RlcgSKtpGHKUy9Nbu-134" value="ShowTimeRepository" style="swimlane;whiteSpace=wrap;html=1;startSize=40;verticalAlign=bottom;" vertex="1" parent="1">
          <mxGeometry x="1400" y="50" width="240" height="90" as="geometry" />
        </mxCell>
        <mxCell id="au2RlcgSKtpGHKUy9Nbu-135" value="" style="endArrow=none;html=1;rounded=0;exitX=0;exitY=1;exitDx=0;exitDy=0;exitPerimeter=0;" edge="1" parent="au2RlcgSKtpGHKUy9Nbu-134">
          <mxGeometry width="50" height="50" relative="1" as="geometry">
            <mxPoint x="-4" y="60" as="sourcePoint" />
            <mxPoint x="240" y="60" as="targetPoint" />
            <Array as="points" />
          </mxGeometry>
        </mxCell>
        <mxCell id="au2RlcgSKtpGHKUy9Nbu-136" value="&amp;lt;&amp;lt;interface&amp;gt;&amp;gt;" style="text;html=1;align=center;verticalAlign=middle;whiteSpace=wrap;rounded=0;" vertex="1" parent="au2RlcgSKtpGHKUy9Nbu-134">
          <mxGeometry x="70" width="60" height="30" as="geometry" />
        </mxCell>
        <mxCell id="au2RlcgSKtpGHKUy9Nbu-137" value="RoomController" style="swimlane;whiteSpace=wrap;html=1;startSize=23;" vertex="1" parent="1">
          <mxGeometry x="1320" y="240" width="240" height="120" as="geometry" />
        </mxCell>
        <mxCell id="au2RlcgSKtpGHKUy9Nbu-138" value="" style="endArrow=none;html=1;rounded=0;exitX=0;exitY=1;exitDx=0;exitDy=0;exitPerimeter=0;" edge="1" parent="au2RlcgSKtpGHKUy9Nbu-137">
          <mxGeometry width="50" height="50" relative="1" as="geometry">
            <mxPoint x="-3.4" y="57.99" as="sourcePoint" />
            <mxPoint x="241" y="60" as="targetPoint" />
            <Array as="points">
              <mxPoint x="96.6" y="57.99" />
            </Array>
          </mxGeometry>
        </mxCell>
        <mxCell id="au2RlcgSKtpGHKUy9Nbu-140" value="+getRoomById() : Room" style="text;strokeColor=none;fillColor=none;align=left;verticalAlign=middle;spacingLeft=4;spacingRight=4;overflow=hidden;points=[[0,0.5],[1,0.5]];portConstraint=eastwest;rotatable=0;whiteSpace=wrap;html=1;" vertex="1" parent="au2RlcgSKtpGHKUy9Nbu-137">
          <mxGeometry y="85" width="200" height="30" as="geometry" />
        </mxCell>
        <mxCell id="au2RlcgSKtpGHKUy9Nbu-141" value="&lt;div style=&quot;text-align: center;&quot;&gt;&lt;span style=&quot;background-color: initial;&quot;&gt;- roomService::roomService&lt;/span&gt;&lt;/div&gt;" style="text;strokeColor=none;fillColor=none;align=left;verticalAlign=middle;spacingLeft=4;spacingRight=4;overflow=hidden;points=[[0,0.5],[1,0.5]];portConstraint=eastwest;rotatable=0;whiteSpace=wrap;html=1;" vertex="1" parent="au2RlcgSKtpGHKUy9Nbu-137">
          <mxGeometry y="30" width="230" height="30" as="geometry" />
        </mxCell>
        <mxCell id="au2RlcgSKtpGHKUy9Nbu-142" value="&lt;div style=&quot;text-align: center;&quot;&gt;&lt;span style=&quot;background-color: initial;&quot;&gt;+getAllRoom&lt;/span&gt;&lt;span style=&quot;background-color: initial;&quot;&gt;() : List&amp;lt;Room&amp;gt;&lt;/span&gt;&lt;/div&gt;" style="text;strokeColor=none;fillColor=none;align=left;verticalAlign=middle;spacingLeft=4;spacingRight=4;overflow=hidden;points=[[0,0.5],[1,0.5]];portConstraint=eastwest;rotatable=0;whiteSpace=wrap;html=1;" vertex="1" parent="au2RlcgSKtpGHKUy9Nbu-137">
          <mxGeometry y="60" width="220" height="30" as="geometry" />
        </mxCell>
        <mxCell id="au2RlcgSKtpGHKUy9Nbu-207" value="" style="endArrow=diamondThin;endFill=1;endSize=24;html=1;rounded=0;exitX=0;exitY=0;exitDx=0;exitDy=0;" edge="1" parent="au2RlcgSKtpGHKUy9Nbu-137">
          <mxGeometry width="160" relative="1" as="geometry">
            <mxPoint x="109.5" y="175" as="sourcePoint" />
            <mxPoint x="110" y="120" as="targetPoint" />
            <Array as="points" />
          </mxGeometry>
        </mxCell>
        <mxCell id="au2RlcgSKtpGHKUy9Nbu-143" value="RoomController" style="swimlane;whiteSpace=wrap;html=1;startSize=40;verticalAlign=bottom;" vertex="1" parent="1">
          <mxGeometry x="1320" y="410" width="240" height="120" as="geometry" />
        </mxCell>
        <mxCell id="au2RlcgSKtpGHKUy9Nbu-144" value="" style="endArrow=none;html=1;rounded=0;exitX=0;exitY=1;exitDx=0;exitDy=0;exitPerimeter=0;" edge="1" parent="au2RlcgSKtpGHKUy9Nbu-143">
          <mxGeometry width="50" height="50" relative="1" as="geometry">
            <mxPoint x="-3.4" y="57.99" as="sourcePoint" />
            <mxPoint x="241" y="60" as="targetPoint" />
            <Array as="points">
              <mxPoint x="96.6" y="57.99" />
            </Array>
          </mxGeometry>
        </mxCell>
        <mxCell id="au2RlcgSKtpGHKUy9Nbu-145" value="+getRoomById() : Room" style="text;strokeColor=none;fillColor=none;align=left;verticalAlign=middle;spacingLeft=4;spacingRight=4;overflow=hidden;points=[[0,0.5],[1,0.5]];portConstraint=eastwest;rotatable=0;whiteSpace=wrap;html=1;" vertex="1" parent="au2RlcgSKtpGHKUy9Nbu-143">
          <mxGeometry y="85" width="200" height="30" as="geometry" />
        </mxCell>
        <mxCell id="au2RlcgSKtpGHKUy9Nbu-147" value="&lt;div style=&quot;text-align: center;&quot;&gt;&lt;span style=&quot;background-color: initial;&quot;&gt;+getAllRoom&lt;/span&gt;&lt;span style=&quot;background-color: initial;&quot;&gt;() : List&amp;lt;Room&amp;gt;&lt;/span&gt;&lt;/div&gt;" style="text;strokeColor=none;fillColor=none;align=left;verticalAlign=middle;spacingLeft=4;spacingRight=4;overflow=hidden;points=[[0,0.5],[1,0.5]];portConstraint=eastwest;rotatable=0;whiteSpace=wrap;html=1;" vertex="1" parent="au2RlcgSKtpGHKUy9Nbu-143">
          <mxGeometry y="60" width="220" height="30" as="geometry" />
        </mxCell>
        <mxCell id="au2RlcgSKtpGHKUy9Nbu-148" value="&amp;lt;&amp;lt;interface&amp;gt;&amp;gt;" style="text;html=1;align=center;verticalAlign=middle;whiteSpace=wrap;rounded=0;" vertex="1" parent="au2RlcgSKtpGHKUy9Nbu-143">
          <mxGeometry x="90" width="60" height="30" as="geometry" />
        </mxCell>
        <mxCell id="au2RlcgSKtpGHKUy9Nbu-149" value="RoomService" style="swimlane;whiteSpace=wrap;html=1;startSize=23;" vertex="1" parent="1">
          <mxGeometry x="1320" y="585" width="240" height="120" as="geometry" />
        </mxCell>
        <mxCell id="au2RlcgSKtpGHKUy9Nbu-150" value="" style="endArrow=none;html=1;rounded=0;exitX=0;exitY=1;exitDx=0;exitDy=0;exitPerimeter=0;" edge="1" parent="au2RlcgSKtpGHKUy9Nbu-149">
          <mxGeometry width="50" height="50" relative="1" as="geometry">
            <mxPoint x="-3.4" y="57.99" as="sourcePoint" />
            <mxPoint x="241" y="60" as="targetPoint" />
            <Array as="points">
              <mxPoint x="96.6" y="57.99" />
            </Array>
          </mxGeometry>
        </mxCell>
        <mxCell id="au2RlcgSKtpGHKUy9Nbu-151" value="+getRoomById() : Room" style="text;strokeColor=none;fillColor=none;align=left;verticalAlign=middle;spacingLeft=4;spacingRight=4;overflow=hidden;points=[[0,0.5],[1,0.5]];portConstraint=eastwest;rotatable=0;whiteSpace=wrap;html=1;" vertex="1" parent="au2RlcgSKtpGHKUy9Nbu-149">
          <mxGeometry y="85" width="200" height="30" as="geometry" />
        </mxCell>
        <mxCell id="au2RlcgSKtpGHKUy9Nbu-152" value="&lt;div style=&quot;text-align: center;&quot;&gt;&lt;span style=&quot;background-color: initial;&quot;&gt;- roomRepository : roomRepository&lt;/span&gt;&lt;/div&gt;" style="text;strokeColor=none;fillColor=none;align=left;verticalAlign=middle;spacingLeft=4;spacingRight=4;overflow=hidden;points=[[0,0.5],[1,0.5]];portConstraint=eastwest;rotatable=0;whiteSpace=wrap;html=1;" vertex="1" parent="au2RlcgSKtpGHKUy9Nbu-149">
          <mxGeometry y="20" width="230" height="30" as="geometry" />
        </mxCell>
        <mxCell id="au2RlcgSKtpGHKUy9Nbu-153" value="&lt;div style=&quot;text-align: center;&quot;&gt;&lt;span style=&quot;background-color: initial;&quot;&gt;+getAllRoom&lt;/span&gt;&lt;span style=&quot;background-color: initial;&quot;&gt;() : List&amp;lt;Room&amp;gt;&lt;/span&gt;&lt;/div&gt;" style="text;strokeColor=none;fillColor=none;align=left;verticalAlign=middle;spacingLeft=4;spacingRight=4;overflow=hidden;points=[[0,0.5],[1,0.5]];portConstraint=eastwest;rotatable=0;whiteSpace=wrap;html=1;" vertex="1" parent="au2RlcgSKtpGHKUy9Nbu-149">
          <mxGeometry y="60" width="220" height="30" as="geometry" />
        </mxCell>
        <mxCell id="au2RlcgSKtpGHKUy9Nbu-154" value="RoomRepository" style="swimlane;whiteSpace=wrap;html=1;startSize=40;verticalAlign=bottom;" vertex="1" parent="1">
          <mxGeometry x="1320" y="750" width="240" height="90" as="geometry" />
        </mxCell>
        <mxCell id="au2RlcgSKtpGHKUy9Nbu-155" value="" style="endArrow=none;html=1;rounded=0;exitX=0;exitY=1;exitDx=0;exitDy=0;exitPerimeter=0;" edge="1" parent="au2RlcgSKtpGHKUy9Nbu-154">
          <mxGeometry width="50" height="50" relative="1" as="geometry">
            <mxPoint x="-4" y="60" as="sourcePoint" />
            <mxPoint x="240" y="60" as="targetPoint" />
            <Array as="points" />
          </mxGeometry>
        </mxCell>
        <mxCell id="au2RlcgSKtpGHKUy9Nbu-156" value="&amp;lt;&amp;lt;interface&amp;gt;&amp;gt;" style="text;html=1;align=center;verticalAlign=middle;whiteSpace=wrap;rounded=0;" vertex="1" parent="au2RlcgSKtpGHKUy9Nbu-154">
          <mxGeometry x="70" width="60" height="30" as="geometry" />
        </mxCell>
        <mxCell id="au2RlcgSKtpGHKUy9Nbu-157" value="MovieTypeController" style="swimlane;whiteSpace=wrap;html=1;startSize=23;" vertex="1" parent="1">
          <mxGeometry x="230" y="890" width="240" height="100" as="geometry" />
        </mxCell>
        <mxCell id="au2RlcgSKtpGHKUy9Nbu-158" value="" style="endArrow=none;html=1;rounded=0;exitX=0;exitY=1;exitDx=0;exitDy=0;exitPerimeter=0;" edge="1" parent="au2RlcgSKtpGHKUy9Nbu-157">
          <mxGeometry width="50" height="50" relative="1" as="geometry">
            <mxPoint x="-3.4" y="57.99" as="sourcePoint" />
            <mxPoint x="241" y="60" as="targetPoint" />
            <Array as="points">
              <mxPoint x="96.6" y="57.99" />
            </Array>
          </mxGeometry>
        </mxCell>
        <mxCell id="au2RlcgSKtpGHKUy9Nbu-160" value="&lt;div style=&quot;text-align: center;&quot;&gt;&lt;span style=&quot;background-color: initial;&quot;&gt;- movieTypeService::&lt;/span&gt;&lt;span style=&quot;background-color: initial;&quot;&gt;movieTypeService&lt;/span&gt;&lt;/div&gt;" style="text;strokeColor=none;fillColor=none;align=left;verticalAlign=middle;spacingLeft=4;spacingRight=4;overflow=hidden;points=[[0,0.5],[1,0.5]];portConstraint=eastwest;rotatable=0;whiteSpace=wrap;html=1;" vertex="1" parent="au2RlcgSKtpGHKUy9Nbu-157">
          <mxGeometry y="20" width="230" height="30" as="geometry" />
        </mxCell>
        <mxCell id="au2RlcgSKtpGHKUy9Nbu-161" value="&lt;div style=&quot;text-align: center;&quot;&gt;&lt;span style=&quot;background-color: initial;&quot;&gt;+getAllMovieType&lt;/span&gt;&lt;span style=&quot;background-color: initial;&quot;&gt;() : List&amp;lt;MovieType&amp;gt;&lt;/span&gt;&lt;/div&gt;" style="text;strokeColor=none;fillColor=none;align=left;verticalAlign=middle;spacingLeft=4;spacingRight=4;overflow=hidden;points=[[0,0.5],[1,0.5]];portConstraint=eastwest;rotatable=0;whiteSpace=wrap;html=1;" vertex="1" parent="au2RlcgSKtpGHKUy9Nbu-157">
          <mxGeometry y="60" width="220" height="30" as="geometry" />
        </mxCell>
        <mxCell id="au2RlcgSKtpGHKUy9Nbu-162" value="MovieTypeService" style="swimlane;whiteSpace=wrap;html=1;startSize=40;verticalAlign=bottom;" vertex="1" parent="1">
          <mxGeometry x="540" y="890" width="240" height="100" as="geometry" />
        </mxCell>
        <mxCell id="au2RlcgSKtpGHKUy9Nbu-163" value="" style="endArrow=none;html=1;rounded=0;exitX=0;exitY=1;exitDx=0;exitDy=0;exitPerimeter=0;" edge="1" parent="au2RlcgSKtpGHKUy9Nbu-162">
          <mxGeometry width="50" height="50" relative="1" as="geometry">
            <mxPoint x="-3.4" y="57.99" as="sourcePoint" />
            <mxPoint x="241" y="60" as="targetPoint" />
            <Array as="points">
              <mxPoint x="96.6" y="57.99" />
            </Array>
          </mxGeometry>
        </mxCell>
        <mxCell id="au2RlcgSKtpGHKUy9Nbu-165" value="&lt;div style=&quot;text-align: center;&quot;&gt;&lt;span style=&quot;background-color: initial;&quot;&gt;+getAllMovieType&lt;/span&gt;&lt;span style=&quot;background-color: initial;&quot;&gt;() : List&amp;lt;MovieType&amp;gt;&lt;/span&gt;&lt;/div&gt;" style="text;strokeColor=none;fillColor=none;align=left;verticalAlign=middle;spacingLeft=4;spacingRight=4;overflow=hidden;points=[[0,0.5],[1,0.5]];portConstraint=eastwest;rotatable=0;whiteSpace=wrap;html=1;" vertex="1" parent="au2RlcgSKtpGHKUy9Nbu-162">
          <mxGeometry y="60" width="220" height="30" as="geometry" />
        </mxCell>
        <mxCell id="au2RlcgSKtpGHKUy9Nbu-171" value="&amp;lt;&amp;lt;interface&amp;gt;&amp;gt;" style="text;html=1;align=center;verticalAlign=middle;whiteSpace=wrap;rounded=0;" vertex="1" parent="au2RlcgSKtpGHKUy9Nbu-162">
          <mxGeometry x="90" width="60" height="30" as="geometry" />
        </mxCell>
        <mxCell id="au2RlcgSKtpGHKUy9Nbu-172" value="MovieTypeService" style="swimlane;whiteSpace=wrap;html=1;startSize=23;" vertex="1" parent="1">
          <mxGeometry x="840" y="890" width="260" height="100" as="geometry" />
        </mxCell>
        <mxCell id="au2RlcgSKtpGHKUy9Nbu-173" value="" style="endArrow=none;html=1;rounded=0;exitX=0;exitY=1;exitDx=0;exitDy=0;exitPerimeter=0;" edge="1" parent="au2RlcgSKtpGHKUy9Nbu-172">
          <mxGeometry width="50" height="50" relative="1" as="geometry">
            <mxPoint x="-3.4" y="57.99" as="sourcePoint" />
            <mxPoint x="260" y="58" as="targetPoint" />
            <Array as="points">
              <mxPoint x="96.6" y="57.99" />
            </Array>
          </mxGeometry>
        </mxCell>
        <mxCell id="au2RlcgSKtpGHKUy9Nbu-174" value="&lt;div style=&quot;text-align: center;&quot;&gt;&lt;span style=&quot;background-color: initial;&quot;&gt;- movieTypeRepository::&lt;/span&gt;&lt;span style=&quot;background-color: initial;&quot;&gt;movieTypeRepository&lt;/span&gt;&lt;/div&gt;" style="text;strokeColor=none;fillColor=none;align=left;verticalAlign=middle;spacingLeft=4;spacingRight=4;overflow=hidden;points=[[0,0.5],[1,0.5]];portConstraint=eastwest;rotatable=0;whiteSpace=wrap;html=1;" vertex="1" parent="au2RlcgSKtpGHKUy9Nbu-172">
          <mxGeometry y="20" width="260" height="30" as="geometry" />
        </mxCell>
        <mxCell id="au2RlcgSKtpGHKUy9Nbu-175" value="&lt;div style=&quot;text-align: center;&quot;&gt;&lt;span style=&quot;background-color: initial;&quot;&gt;+getAllMovieType&lt;/span&gt;&lt;span style=&quot;background-color: initial;&quot;&gt;() : List&amp;lt;MovieType&amp;gt;&lt;/span&gt;&lt;/div&gt;" style="text;strokeColor=none;fillColor=none;align=left;verticalAlign=middle;spacingLeft=4;spacingRight=4;overflow=hidden;points=[[0,0.5],[1,0.5]];portConstraint=eastwest;rotatable=0;whiteSpace=wrap;html=1;" vertex="1" parent="au2RlcgSKtpGHKUy9Nbu-172">
          <mxGeometry y="60" width="220" height="30" as="geometry" />
        </mxCell>
        <mxCell id="au2RlcgSKtpGHKUy9Nbu-176" value="MovieTypeRepository" style="swimlane;whiteSpace=wrap;html=1;startSize=40;verticalAlign=bottom;" vertex="1" parent="1">
          <mxGeometry x="1250" y="895" width="200" height="90" as="geometry" />
        </mxCell>
        <mxCell id="au2RlcgSKtpGHKUy9Nbu-177" value="" style="endArrow=none;html=1;rounded=0;exitX=0;exitY=1;exitDx=0;exitDy=0;exitPerimeter=0;entryX=1.017;entryY=1.067;entryDx=0;entryDy=0;entryPerimeter=0;" edge="1" parent="au2RlcgSKtpGHKUy9Nbu-176">
          <mxGeometry width="50" height="50" relative="1" as="geometry">
            <mxPoint x="-4" y="60" as="sourcePoint" />
            <mxPoint x="199.4000000000001" y="62.00999999999999" as="targetPoint" />
            <Array as="points" />
          </mxGeometry>
        </mxCell>
        <mxCell id="au2RlcgSKtpGHKUy9Nbu-178" value="&amp;lt;&amp;lt;interface&amp;gt;&amp;gt;" style="text;html=1;align=center;verticalAlign=middle;whiteSpace=wrap;rounded=0;" vertex="1" parent="au2RlcgSKtpGHKUy9Nbu-176">
          <mxGeometry x="70" width="60" height="30" as="geometry" />
        </mxCell>
        <mxCell id="au2RlcgSKtpGHKUy9Nbu-180" value="" style="endArrow=diamondThin;endFill=1;endSize=24;html=1;rounded=0;exitX=0.444;exitY=0.014;exitDx=0;exitDy=0;exitPerimeter=0;entryX=0.454;entryY=0.953;entryDx=0;entryDy=0;entryPerimeter=0;" edge="1" parent="1" source="au2RlcgSKtpGHKUy9Nbu-69" target="au2RlcgSKtpGHKUy9Nbu-68">
          <mxGeometry width="160" relative="1" as="geometry">
            <mxPoint x="400" y="260" as="sourcePoint" />
            <mxPoint x="259" y="190" as="targetPoint" />
            <Array as="points" />
          </mxGeometry>
        </mxCell>
        <mxCell id="au2RlcgSKtpGHKUy9Nbu-181" value="owns" style="text;html=1;align=center;verticalAlign=middle;resizable=0;points=[];autosize=1;strokeColor=none;fillColor=none;" vertex="1" parent="1">
          <mxGeometry x="260" y="200" width="50" height="30" as="geometry" />
        </mxCell>
        <mxCell id="au2RlcgSKtpGHKUy9Nbu-182" value="" style="endArrow=diamondThin;endFill=1;endSize=24;html=1;rounded=0;entryX=0.432;entryY=0.987;entryDx=0;entryDy=0;entryPerimeter=0;exitX=0.5;exitY=0;exitDx=0;exitDy=0;" edge="1" parent="1" source="au2RlcgSKtpGHKUy9Nbu-104" target="au2RlcgSKtpGHKUy9Nbu-90">
          <mxGeometry width="160" relative="1" as="geometry">
            <mxPoint x="256" y="680" as="sourcePoint" />
            <mxPoint x="460" y="689" as="targetPoint" />
            <Array as="points" />
          </mxGeometry>
        </mxCell>
        <mxCell id="au2RlcgSKtpGHKUy9Nbu-183" value="owns" style="text;html=1;align=center;verticalAlign=middle;resizable=0;points=[];autosize=1;strokeColor=none;fillColor=none;" vertex="1" parent="1">
          <mxGeometry x="260" y="720" width="50" height="30" as="geometry" />
        </mxCell>
        <mxCell id="au2RlcgSKtpGHKUy9Nbu-187" value="" style="endArrow=block;dashed=1;endFill=0;endSize=12;html=1;rounded=0;exitX=0.432;exitY=-0.016;exitDx=0;exitDy=0;exitPerimeter=0;entryX=0.44;entryY=1.067;entryDx=0;entryDy=0;entryPerimeter=0;" edge="1" parent="1" source="au2RlcgSKtpGHKUy9Nbu-84" target="au2RlcgSKtpGHKUy9Nbu-76">
          <mxGeometry width="160" relative="1" as="geometry">
            <mxPoint x="400" y="460" as="sourcePoint" />
            <mxPoint x="240" y="470" as="targetPoint" />
          </mxGeometry>
        </mxCell>
        <mxCell id="au2RlcgSKtpGHKUy9Nbu-188" value="realizes" style="text;html=1;align=center;verticalAlign=middle;resizable=0;points=[];autosize=1;strokeColor=none;fillColor=none;" vertex="1" parent="1">
          <mxGeometry x="255" y="500" width="60" height="30" as="geometry" />
        </mxCell>
        <mxCell id="au2RlcgSKtpGHKUy9Nbu-189" value="Use" style="endArrow=open;endSize=12;dashed=1;html=1;rounded=0;entryX=0;entryY=0.5;entryDx=0;entryDy=0;exitX=1.016;exitY=0.133;exitDx=0;exitDy=0;exitPerimeter=0;" edge="1" parent="1" source="au2RlcgSKtpGHKUy9Nbu-75" target="lbkJmBCR8xzpIKuYviyf-26">
          <mxGeometry width="160" relative="1" as="geometry">
            <mxPoint x="400" y="460" as="sourcePoint" />
            <mxPoint x="560" y="460" as="targetPoint" />
          </mxGeometry>
        </mxCell>
        <mxCell id="au2RlcgSKtpGHKUy9Nbu-190" value="Use" style="endArrow=open;endSize=12;dashed=1;html=1;rounded=0;entryX=-0.03;entryY=-0.107;entryDx=0;entryDy=0;exitX=1;exitY=0.5;exitDx=0;exitDy=0;entryPerimeter=0;fontStyle=1" edge="1" parent="1" source="au2RlcgSKtpGHKUy9Nbu-91" target="lbkJmBCR8xzpIKuYviyf-36">
          <mxGeometry width="160" relative="1" as="geometry">
            <mxPoint x="383" y="364" as="sourcePoint" />
            <mxPoint x="470" y="365" as="targetPoint" />
          </mxGeometry>
        </mxCell>
        <mxCell id="au2RlcgSKtpGHKUy9Nbu-191" value="Use" style="endArrow=open;endSize=12;dashed=1;html=1;rounded=0;entryX=-0.008;entryY=0.793;entryDx=0;entryDy=0;exitX=1;exitY=0.5;exitDx=0;exitDy=0;entryPerimeter=0;" edge="1" parent="1" source="au2RlcgSKtpGHKUy9Nbu-98" target="lbkJmBCR8xzpIKuYviyf-38">
          <mxGeometry width="160" relative="1" as="geometry">
            <mxPoint x="380" y="535" as="sourcePoint" />
            <mxPoint x="444" y="537" as="targetPoint" />
          </mxGeometry>
        </mxCell>
        <mxCell id="au2RlcgSKtpGHKUy9Nbu-192" value="" style="endArrow=diamondThin;endFill=1;endSize=24;html=1;rounded=0;exitX=0;exitY=0;exitDx=0;exitDy=0;exitPerimeter=0;" edge="1" parent="1" source="au2RlcgSKtpGHKUy9Nbu-126">
          <mxGeometry width="160" relative="1" as="geometry">
            <mxPoint x="790" y="100" as="sourcePoint" />
            <mxPoint x="690" y="130" as="targetPoint" />
            <Array as="points" />
          </mxGeometry>
        </mxCell>
        <mxCell id="au2RlcgSKtpGHKUy9Nbu-193" value="" style="endArrow=block;dashed=1;endFill=0;endSize=12;html=1;rounded=0;exitX=0;exitY=0.5;exitDx=0;exitDy=0;" edge="1" parent="1" source="au2RlcgSKtpGHKUy9Nbu-132">
          <mxGeometry width="160" relative="1" as="geometry">
            <mxPoint x="1100" y="125" as="sourcePoint" />
            <mxPoint x="1010" y="120" as="targetPoint" />
          </mxGeometry>
        </mxCell>
        <mxCell id="au2RlcgSKtpGHKUy9Nbu-194" value="owns" style="text;html=1;align=center;verticalAlign=middle;resizable=0;points=[];autosize=1;strokeColor=none;fillColor=none;" vertex="1" parent="1">
          <mxGeometry x="710" y="95" width="50" height="30" as="geometry" />
        </mxCell>
        <mxCell id="au2RlcgSKtpGHKUy9Nbu-195" value="realizes" style="text;html=1;align=center;verticalAlign=middle;resizable=0;points=[];autosize=1;strokeColor=none;fillColor=none;" vertex="1" parent="1">
          <mxGeometry x="1010" y="90" width="60" height="30" as="geometry" />
        </mxCell>
        <mxCell id="au2RlcgSKtpGHKUy9Nbu-197" value="" style="endArrow=diamondThin;endFill=1;endSize=24;html=1;rounded=0;exitX=0;exitY=0.75;exitDx=0;exitDy=0;entryX=1;entryY=0.5;entryDx=0;entryDy=0;" edge="1" parent="1" source="au2RlcgSKtpGHKUy9Nbu-134" target="au2RlcgSKtpGHKUy9Nbu-127">
          <mxGeometry width="160" relative="1" as="geometry">
            <mxPoint x="1490" y="120" as="sourcePoint" />
            <mxPoint x="1340" y="110" as="targetPoint" />
            <Array as="points" />
          </mxGeometry>
        </mxCell>
        <mxCell id="au2RlcgSKtpGHKUy9Nbu-198" value="owns" style="text;html=1;align=center;verticalAlign=middle;resizable=0;points=[];autosize=1;strokeColor=none;fillColor=none;" vertex="1" parent="1">
          <mxGeometry x="1350" y="120" width="50" height="30" as="geometry" />
        </mxCell>
        <mxCell id="au2RlcgSKtpGHKUy9Nbu-200" value="Use" style="endArrow=open;endSize=12;dashed=1;html=1;rounded=0;exitX=0.75;exitY=1;exitDx=0;exitDy=0;entryX=1;entryY=0;entryDx=0;entryDy=0;" edge="1" parent="1" source="au2RlcgSKtpGHKUy9Nbu-134" target="au2RlcgSKtpGHKUy9Nbu-23">
          <mxGeometry width="160" relative="1" as="geometry">
            <mxPoint x="640" y="190" as="sourcePoint" />
            <mxPoint x="970" y="360" as="targetPoint" />
          </mxGeometry>
        </mxCell>
        <mxCell id="au2RlcgSKtpGHKUy9Nbu-201" value="Use" style="endArrow=open;endSize=12;dashed=1;html=1;rounded=0;exitX=0;exitY=1;exitDx=0;exitDy=0;entryX=0.75;entryY=0;entryDx=0;entryDy=0;" edge="1" parent="1" source="au2RlcgSKtpGHKUy9Nbu-127" target="au2RlcgSKtpGHKUy9Nbu-23">
          <mxGeometry width="160" relative="1" as="geometry">
            <mxPoint x="620" y="195" as="sourcePoint" />
            <mxPoint x="880" y="290" as="targetPoint" />
          </mxGeometry>
        </mxCell>
        <mxCell id="au2RlcgSKtpGHKUy9Nbu-202" value="Use" style="endArrow=open;endSize=12;dashed=1;html=1;rounded=0;exitX=0.34;exitY=1.053;exitDx=0;exitDy=0;exitPerimeter=0;entryX=0.5;entryY=0;entryDx=0;entryDy=0;" edge="1" parent="1" source="au2RlcgSKtpGHKUy9Nbu-123" target="au2RlcgSKtpGHKUy9Nbu-23">
          <mxGeometry width="160" relative="1" as="geometry">
            <mxPoint x="630" y="205" as="sourcePoint" />
            <mxPoint x="900" y="360" as="targetPoint" />
          </mxGeometry>
        </mxCell>
        <mxCell id="au2RlcgSKtpGHKUy9Nbu-208" value="owns" style="text;html=1;align=center;verticalAlign=middle;resizable=0;points=[];autosize=1;strokeColor=none;fillColor=none;" vertex="1" parent="1">
          <mxGeometry x="1430" y="370" width="50" height="30" as="geometry" />
        </mxCell>
        <mxCell id="au2RlcgSKtpGHKUy9Nbu-210" value="" style="endArrow=block;dashed=1;endFill=0;endSize=12;html=1;rounded=0;exitX=0.5;exitY=0;exitDx=0;exitDy=0;entryX=0.538;entryY=1.14;entryDx=0;entryDy=0;entryPerimeter=0;" edge="1" parent="1" target="au2RlcgSKtpGHKUy9Nbu-145">
          <mxGeometry width="160" relative="1" as="geometry">
            <mxPoint x="1430" y="582.5" as="sourcePoint" />
            <mxPoint x="1430" y="540" as="targetPoint" />
          </mxGeometry>
        </mxCell>
        <mxCell id="au2RlcgSKtpGHKUy9Nbu-211" value="realizes" style="text;html=1;align=center;verticalAlign=middle;resizable=0;points=[];autosize=1;strokeColor=none;fillColor=none;" vertex="1" parent="1">
          <mxGeometry x="1425" y="550" width="60" height="30" as="geometry" />
        </mxCell>
        <mxCell id="au2RlcgSKtpGHKUy9Nbu-212" value="" style="endArrow=diamondThin;endFill=1;endSize=24;html=1;rounded=0;exitX=0.64;exitY=-0.053;exitDx=0;exitDy=0;exitPerimeter=0;" edge="1" parent="1" source="au2RlcgSKtpGHKUy9Nbu-156">
          <mxGeometry width="160" relative="1" as="geometry">
            <mxPoint x="1429" y="765" as="sourcePoint" />
            <mxPoint x="1429" y="705" as="targetPoint" />
            <Array as="points" />
          </mxGeometry>
        </mxCell>
        <mxCell id="au2RlcgSKtpGHKUy9Nbu-213" value="owns" style="text;html=1;align=center;verticalAlign=middle;resizable=0;points=[];autosize=1;strokeColor=none;fillColor=none;" vertex="1" parent="1">
          <mxGeometry x="1430" y="720" width="50" height="30" as="geometry" />
        </mxCell>
        <mxCell id="au2RlcgSKtpGHKUy9Nbu-214" value="Use" style="endArrow=open;endSize=12;dashed=1;html=1;rounded=0;exitX=0;exitY=0.5;exitDx=0;exitDy=0;entryX=1;entryY=0.5;entryDx=0;entryDy=0;" edge="1" parent="1" source="au2RlcgSKtpGHKUy9Nbu-147" target="au2RlcgSKtpGHKUy9Nbu-45">
          <mxGeometry width="160" relative="1" as="geometry">
            <mxPoint x="1620" y="150" as="sourcePoint" />
            <mxPoint x="950" y="320" as="targetPoint" />
          </mxGeometry>
        </mxCell>
        <mxCell id="au2RlcgSKtpGHKUy9Nbu-215" value="Use" style="endArrow=open;endSize=12;dashed=1;html=1;rounded=0;exitX=0;exitY=0.5;exitDx=0;exitDy=0;entryX=1.012;entryY=0.763;entryDx=0;entryDy=0;entryPerimeter=0;" edge="1" parent="1" source="au2RlcgSKtpGHKUy9Nbu-153" target="au2RlcgSKtpGHKUy9Nbu-45">
          <mxGeometry width="160" relative="1" as="geometry">
            <mxPoint x="1440" y="315" as="sourcePoint" />
            <mxPoint x="1300" y="483" as="targetPoint" />
          </mxGeometry>
        </mxCell>
        <mxCell id="au2RlcgSKtpGHKUy9Nbu-216" value="Use" style="endArrow=open;endSize=12;dashed=1;html=1;rounded=0;exitX=0;exitY=0.5;exitDx=0;exitDy=0;entryX=1;entryY=0.103;entryDx=0;entryDy=0;entryPerimeter=0;" edge="1" parent="1" source="au2RlcgSKtpGHKUy9Nbu-154" target="au2RlcgSKtpGHKUy9Nbu-49">
          <mxGeometry width="160" relative="1" as="geometry">
            <mxPoint x="1450" y="325" as="sourcePoint" />
            <mxPoint x="1310" y="493" as="targetPoint" />
          </mxGeometry>
        </mxCell>
        <mxCell id="au2RlcgSKtpGHKUy9Nbu-217" value="" style="endArrow=diamondThin;endFill=1;endSize=24;html=1;rounded=0;exitX=-0.016;exitY=0.027;exitDx=0;exitDy=0;exitPerimeter=0;" edge="1" parent="1" source="au2RlcgSKtpGHKUy9Nbu-165">
          <mxGeometry width="160" relative="1" as="geometry">
            <mxPoint x="480" y="850" as="sourcePoint" />
            <mxPoint x="470" y="950" as="targetPoint" />
            <Array as="points" />
          </mxGeometry>
        </mxCell>
        <mxCell id="au2RlcgSKtpGHKUy9Nbu-218" value="owns" style="text;html=1;align=center;verticalAlign=middle;resizable=0;points=[];autosize=1;strokeColor=none;fillColor=none;" vertex="1" parent="1">
          <mxGeometry x="490" y="920" width="50" height="30" as="geometry" />
        </mxCell>
        <mxCell id="au2RlcgSKtpGHKUy9Nbu-220" value="" style="endArrow=block;dashed=1;endFill=0;endSize=12;html=1;rounded=0;exitX=-0.013;exitY=0.053;exitDx=0;exitDy=0;exitPerimeter=0;" edge="1" parent="1" source="au2RlcgSKtpGHKUy9Nbu-175">
          <mxGeometry width="160" relative="1" as="geometry">
            <mxPoint x="821" y="950" as="sourcePoint" />
            <mxPoint x="780" y="950" as="targetPoint" />
          </mxGeometry>
        </mxCell>
        <mxCell id="au2RlcgSKtpGHKUy9Nbu-221" value="realizes" style="text;html=1;align=center;verticalAlign=middle;resizable=0;points=[];autosize=1;strokeColor=none;fillColor=none;" vertex="1" parent="1">
          <mxGeometry x="780" y="920" width="60" height="30" as="geometry" />
        </mxCell>
        <mxCell id="au2RlcgSKtpGHKUy9Nbu-222" value="" style="endArrow=diamondThin;endFill=1;endSize=24;html=1;rounded=0;exitX=0;exitY=0.5;exitDx=0;exitDy=0;" edge="1" parent="1" source="au2RlcgSKtpGHKUy9Nbu-176">
          <mxGeometry width="160" relative="1" as="geometry">
            <mxPoint x="1166" y="940.5" as="sourcePoint" />
            <mxPoint x="1100" y="939.5" as="targetPoint" />
            <Array as="points" />
          </mxGeometry>
        </mxCell>
        <mxCell id="au2RlcgSKtpGHKUy9Nbu-223" value="owns" style="text;html=1;align=center;verticalAlign=middle;resizable=0;points=[];autosize=1;strokeColor=none;fillColor=none;" vertex="1" parent="1">
          <mxGeometry x="1130" y="910" width="50" height="30" as="geometry" />
        </mxCell>
        <mxCell id="au2RlcgSKtpGHKUy9Nbu-226" value="" style="endArrow=diamondThin;endFill=0;endSize=24;html=1;rounded=0;exitX=1;exitY=0.5;exitDx=0;exitDy=0;" edge="1" parent="1" source="lbkJmBCR8xzpIKuYviyf-25">
          <mxGeometry width="160" relative="1" as="geometry">
            <mxPoint x="600" y="530" as="sourcePoint" />
            <mxPoint x="740" y="442" as="targetPoint" />
          </mxGeometry>
        </mxCell>
        <mxCell id="au2RlcgSKtpGHKUy9Nbu-227" value="has" style="text;html=1;align=center;verticalAlign=middle;resizable=0;points=[];autosize=1;strokeColor=none;fillColor=none;" vertex="1" parent="1">
          <mxGeometry x="660" y="410" width="40" height="30" as="geometry" />
        </mxCell>
        <mxCell id="au2RlcgSKtpGHKUy9Nbu-229" value="" style="endArrow=diamondThin;endFill=0;endSize=24;html=1;rounded=0;exitX=1;exitY=0.5;exitDx=0;exitDy=0;" edge="1" parent="1">
          <mxGeometry width="160" relative="1" as="geometry">
            <mxPoint x="630" y="669" as="sourcePoint" />
            <mxPoint x="740" y="671" as="targetPoint" />
          </mxGeometry>
        </mxCell>
        <mxCell id="au2RlcgSKtpGHKUy9Nbu-230" value="has" style="text;html=1;align=center;verticalAlign=middle;resizable=0;points=[];autosize=1;strokeColor=none;fillColor=none;" vertex="1" parent="1">
          <mxGeometry x="660" y="640" width="40" height="30" as="geometry" />
        </mxCell>
        <mxCell id="au2RlcgSKtpGHKUy9Nbu-231" value="" style="endArrow=diamondThin;endFill=0;endSize=24;html=1;rounded=0;exitX=1.01;exitY=0.8;exitDx=0;exitDy=0;exitPerimeter=0;" edge="1" parent="1" source="au2RlcgSKtpGHKUy9Nbu-39">
          <mxGeometry width="160" relative="1" as="geometry">
            <mxPoint x="950" y="490" as="sourcePoint" />
            <mxPoint x="1060" y="492" as="targetPoint" />
          </mxGeometry>
        </mxCell>
        <mxCell id="au2RlcgSKtpGHKUy9Nbu-232" value="has" style="text;html=1;align=center;verticalAlign=middle;resizable=0;points=[];autosize=1;strokeColor=none;fillColor=none;" vertex="1" parent="1">
          <mxGeometry x="980" y="455" width="40" height="30" as="geometry" />
        </mxCell>
        <mxCell id="au2RlcgSKtpGHKUy9Nbu-233" value="Use" style="endArrow=open;endSize=12;dashed=1;html=1;rounded=0;exitX=0.5;exitY=0;exitDx=0;exitDy=0;entryX=1;entryY=0.103;entryDx=0;entryDy=0;entryPerimeter=0;fontStyle=1" edge="1" parent="1" source="au2RlcgSKtpGHKUy9Nbu-176">
          <mxGeometry width="160" relative="1" as="geometry">
            <mxPoint x="1100" y="962" as="sourcePoint" />
            <mxPoint x="930" y="755" as="targetPoint" />
          </mxGeometry>
        </mxCell>
        <mxCell id="au2RlcgSKtpGHKUy9Nbu-234" value="Use" style="endArrow=open;endSize=12;dashed=1;html=1;rounded=0;exitX=0.5;exitY=0;exitDx=0;exitDy=0;entryX=0.458;entryY=1.02;entryDx=0;entryDy=0;entryPerimeter=0;fontStyle=1" edge="1" parent="1" source="au2RlcgSKtpGHKUy9Nbu-172" target="au2RlcgSKtpGHKUy9Nbu-16">
          <mxGeometry width="160" relative="1" as="geometry">
            <mxPoint x="1200" y="910" as="sourcePoint" />
            <mxPoint x="840" y="770" as="targetPoint" />
          </mxGeometry>
        </mxCell>
        <mxCell id="au2RlcgSKtpGHKUy9Nbu-235" value="Use" style="endArrow=open;endSize=12;dashed=1;html=1;rounded=0;exitX=0.5;exitY=0;exitDx=0;exitDy=0;entryX=0.106;entryY=1.233;entryDx=0;entryDy=0;entryPerimeter=0;fontStyle=1" edge="1" parent="1" source="au2RlcgSKtpGHKUy9Nbu-162" target="au2RlcgSKtpGHKUy9Nbu-16">
          <mxGeometry width="160" relative="1" as="geometry">
            <mxPoint x="798" y="904" as="sourcePoint" />
            <mxPoint x="660" y="770" as="targetPoint" />
          </mxGeometry>
        </mxCell>
        <mxCell id="au2RlcgSKtpGHKUy9Nbu-237" value="JpaRepository" style="swimlane;whiteSpace=wrap;html=1;startSize=40;verticalAlign=bottom;fontStyle=0" vertex="1" parent="1">
          <mxGeometry x="1840" y="495" width="200" height="90" as="geometry" />
        </mxCell>
        <mxCell id="au2RlcgSKtpGHKUy9Nbu-238" value="" style="endArrow=none;html=1;rounded=0;exitX=0;exitY=1;exitDx=0;exitDy=0;exitPerimeter=0;entryX=1.017;entryY=1.067;entryDx=0;entryDy=0;entryPerimeter=0;" edge="1" parent="au2RlcgSKtpGHKUy9Nbu-237">
          <mxGeometry width="50" height="50" relative="1" as="geometry">
            <mxPoint x="-4" y="60" as="sourcePoint" />
            <mxPoint x="199.4000000000001" y="62.00999999999999" as="targetPoint" />
            <Array as="points" />
          </mxGeometry>
        </mxCell>
        <mxCell id="au2RlcgSKtpGHKUy9Nbu-239" value="&amp;lt;&amp;lt;interface&amp;gt;&amp;gt;" style="text;html=1;align=center;verticalAlign=middle;whiteSpace=wrap;rounded=0;" vertex="1" parent="au2RlcgSKtpGHKUy9Nbu-237">
          <mxGeometry x="70" width="60" height="30" as="geometry" />
        </mxCell>
        <mxCell id="au2RlcgSKtpGHKUy9Nbu-241" value="" style="endArrow=block;endSize=16;endFill=0;html=1;rounded=0;" edge="1" parent="1">
          <mxGeometry width="160" relative="1" as="geometry">
            <mxPoint x="1560" y="810" as="sourcePoint" />
            <mxPoint x="1840" y="560" as="targetPoint" />
          </mxGeometry>
        </mxCell>
        <mxCell id="au2RlcgSKtpGHKUy9Nbu-242" value="is" style="text;html=1;align=center;verticalAlign=middle;resizable=0;points=[];autosize=1;strokeColor=none;fillColor=none;" vertex="1" parent="1">
          <mxGeometry x="1680" y="648" width="30" height="30" as="geometry" />
        </mxCell>
        <mxCell id="au2RlcgSKtpGHKUy9Nbu-243" value="" style="endArrow=block;endSize=16;endFill=0;html=1;rounded=0;exitX=1;exitY=0.75;exitDx=0;exitDy=0;" edge="1" parent="1" source="au2RlcgSKtpGHKUy9Nbu-176">
          <mxGeometry width="160" relative="1" as="geometry">
            <mxPoint x="1460" y="950" as="sourcePoint" />
            <mxPoint x="1940" y="590" as="targetPoint" />
          </mxGeometry>
        </mxCell>
        <mxCell id="au2RlcgSKtpGHKUy9Nbu-244" value="is" style="text;html=1;align=center;verticalAlign=middle;resizable=0;points=[];autosize=1;strokeColor=none;fillColor=none;" vertex="1" parent="1">
          <mxGeometry x="1730" y="705" width="30" height="30" as="geometry" />
        </mxCell>
        <mxCell id="au2RlcgSKtpGHKUy9Nbu-246" value="" style="endArrow=block;endSize=16;endFill=0;html=1;rounded=0;exitX=0.995;exitY=0.338;exitDx=0;exitDy=0;exitPerimeter=0;" edge="1" parent="1" source="au2RlcgSKtpGHKUy9Nbu-134">
          <mxGeometry width="160" relative="1" as="geometry">
            <mxPoint x="1605" y="550" as="sourcePoint" />
            <mxPoint x="1950" y="490" as="targetPoint" />
          </mxGeometry>
        </mxCell>
        <mxCell id="au2RlcgSKtpGHKUy9Nbu-247" value="is" style="text;html=1;align=center;verticalAlign=middle;resizable=0;points=[];autosize=1;strokeColor=none;fillColor=none;" vertex="1" parent="1">
          <mxGeometry x="1770" y="285" width="30" height="30" as="geometry" />
        </mxCell>
      </root>
    </mxGraphModel>
  </diagram>
</mxfile>
